<?xml version="1.0" encoding="UTF-8" standalone="no"?>
<svg
   width="100mm"
   height="100mm"
   viewBox="0 0 100 100"
   version="1.1"
   id="svg1"
   xmlns="http://www.w3.org/2000/svg"
   xmlns:svg="http://www.w3.org/2000/svg">
<defs>
    <style>
      .icon-color { fill: #00421c; }
      @media (prefers-color-scheme: dark) {
        .icon-color { fill: #517662; }
      }
    </style>
  </defs>
  <g>
    <path
       id="rect3"
       class="icon-color"
       d="M 8.0898201,0 C 3.6080766,0 0,3.6080943 0,8.0898611 V 91.910142 C 0,96.391909 3.6080766,100 8.0898201,100 H 91.910183 C 96.391927,100 100,96.391909 100,91.910142 V 8.0898611 C 100,3.6080943 96.391927,0 91.910183,0 Z M 54.456955,11.010487 c 9.752049,0.139982 18.757421,4.292429 26.129778,11.478188 l -6.859181,9.285489 c -5.272642,-5.272659 -12.131833,-8.771805 -19.50419,-8.771805 -13.624874,0 -26.642943,11.944768 -26.642943,27.016196 0,15.164744 13.204569,26.876667 26.689459,26.876667 7.698993,0 14.324874,-3.826208 19.50419,-8.958893 l 6.812665,9.519083 c -6.485807,6.392525 -14.744704,11.291636 -25.943228,11.291636 -21.323856,0 -39.008379,-17.544358 -39.008379,-38.774999 0,-21.183994 17.684614,-38.961562 38.821829,-38.961562 z" />
  </g>
</svg>
